{
  "accessors": [
    {
      "bufferView": 2,
      "componentType": 5126,
      "count": 65532,
      "max": [
        0.2265607714653015,
        0.363423228263855,
        0.494954913854599
      ],
      "min": [
        -0.25466790795326233,
        -0.12206685543060303,
        -0.9483063220977783
      ],
      "type": "VEC3"
    },
    {
      "bufferView": 2,
      "byteOffset": 786384,
      "componentType": 5126,
      "count": 65532,
      "max": [
        0.9999874234199524,
        0.9999448657035828,
        0.9752638339996338
      ],
      "min": [
        -0.9999979138374329,
        -0.9999624490737915,
        -0.9982976913452148
      ],
      "type": "VEC3"
    },
    {
      "bufferView": 1,
      "componentType": 5126,
      "count": 65532,
      "max": [
        0.5093994140625,
        0.964111328125
      ],
      "min": [
        0.0159912109375,
        0.047607421875
      ],
      "type": "VEC2"
    },
    {
      "bufferView": 0,
      "componentType": 5125,
      "count": 212643,
      "type": "SCALAR"
    },
    {
      "bufferView": 2,
      "byteOffset": 1572768,
      "componentType": 5126,
      "count": 65532,
      "max": [
        0.2566450834274292,
        0.13356173038482666,
        0.7485586404800415
      ],
      "min": [
        -0.25466790795326233,
        -0.3362920880317688,
        -0.3160683214664459
      ],
      "type": "VEC3"
    },
    {
      "bufferView": 2,
      "byteOffset": 2359152,
      "componentType": 5126,
      "count": 65532,
      "max": [
        0.9999911189079285,
        0.9999701976776123,
        0.999010443687439
      ],
      "min": [
        -0.9999738931655884,
        -0.9999902248382568,
        -0.9993751645088196
      ],
      "type": "VEC3"
    },
    {
      "bufferView": 1,
      "byteOffset": 524256,
      "componentType": 5126,
      "count": 65532,
      "max": [
        0.5269775390625,
        0.999267578125
      ],
      "min": [
        0.0003662109375,
        0.012451171875
      ],
      "type": "VEC2"
    },
    {
      "bufferView": 0,
      "byteOffset": 850572,
      "componentType": 5125,
      "count": 265548,
      "type": "SCALAR"
    },
    {
      "bufferView": 2,
      "byteOffset": 3145536,
      "componentType": 5126,
      "count": 34341,
      "max": [
        0.22782102227210999,
        0.01764070987701416,
        0.7412828207015991
      ],
      "min": [
        -0.2307833582162857,
        -0.3367343544960022,
        -0.33870092034339905
      ],
      "type": "VEC3"
    },
    {
      "bufferView": 2,
      "byteOffset": 3557628,
      "componentType": 5126,
      "count": 34341,
      "max": [
        0.999778687953949,
        0.9997366666793823,
        0.9891046285629272
      ],
      "min": [
        -0.9999914169311523,
        -0.9999902248382568,
        -0.9998338222503662
      ],
      "type": "VEC3"
    },
    {
      "bufferView": 1,
      "byteOffset": 1048512,
      "componentType": 5126,
      "count": 34341,
      "max": [
        0.5172119140625,
        0.979736328125
      ],
      "min": [
        0.0081787109375,
        0.012451171875
      ],
      "type": "VEC2"
    },
    {
      "bufferView": 0,
      "byteOffset": 1912764,
      "componentType": 5125,
      "count": 124665,
      "type": "SCALAR"
    }
  ],
  "asset": {
    "extras": {
      "author": "3D Hubs (https://sketchfab.com/3dhubs)",
      "license": "CC-BY-4.0 (http://creativecommons.org/licenses/by/4.0/)",
      "source": "https://sketchfab.com/3d-models/person-2673faafebf844c590bd26f7a73e8ff6",
      "title": "Person"
    },
    "generator": "Sketchfab-12.65.0",
    "version": "2.0"
  },
  "bufferViews": [
    {
      "buffer": 0,
      "byteLength": 2411424,
      "name": "floatBufferViews",
      "target": 34963
    },
    {
      "buffer": 0,
      "byteLength": 1323240,
      "byteOffset": 2411424,
      "byteStride": 8,
      "name": "floatBufferViews",
      "target": 34962
    },
    {
      "buffer": 0,
      "byteLength": 3969720,
      "byteOffset": 3734664,
      "byteStride": 12,
      "name": "floatBufferViews",
      "target": 34962
    }
  ],
  "buffers": [
    {
      "byteLength": 7704384,
      "uri": "scene.bin"
    }
  ],
  "images": [
    {
      "uri": "textures/material_0_baseColor.jpeg"
    }
  ],
  "materials": [
    {
      "doubleSided": true,
      "name": "material_0",
      "pbrMetallicRoughness": {
        "baseColorTexture": {
          "index": 0
        },
        "metallicFactor": 0.0,
        "roughnessFactor": 0.6
      }
    }
  ],
  "meshes": [
    {
      "name": "Object_0",
      "primitives": [
        {
          "attributes": {
            "NORMAL": 1,
            "POSITION": 0,
            "TEXCOORD_0": 2
          },
          "indices": 3,
          "material": 0,
          "mode": 4
        }
      ]
    },
    {
      "name": "Object_1",
      "primitives": [
        {
          "attributes": {
            "NORMAL": 5,
            "POSITION": 4,
            "TEXCOORD_0": 6
          },
          "indices": 7,
          "material": 0,
          "mode": 4
        }
      ]
    },
    {
      "name": "Object_2",
      "primitives": [
        {
          "attributes": {
            "NORMAL": 9,
            "POSITION": 8,
            "TEXCOORD_0": 10
          },
          "indices": 11,
          "material": 0,
          "mode": 4
        }
      ]
    }
  ],
  "nodes": [
    {
      "children": [
        1
      ],
      "matrix": [
        1.0,
        0.0,
        0.0,
        0.0,
        0.0,
        2.220446049250313e-16,
        -1.0,
        0.0,
        0.0,
        1.0,
        2.220446049250313e-16,
        0.0,
        0.0,
        0.0,
        0.0,
        1.0
      ],
      "name": "Sketchfab_model"
    },
    {
      "children": [
        2,
        3,
        4
      ],
      "name": "model_mesh.obj.cleaner"
    },
    {
      "mesh": 0,
      "name": "Object_2"
    },
    {
      "mesh": 1,
      "name": "Object_3"
    },
    {
      "mesh": 2,
      "name": "Object_4"
    }
  ],
  "samplers": [
    {
      "magFilter": 9729,
      "minFilter": 9987,
      "wrapS": 10497,
      "wrapT": 10497
    }
  ],
  "scene": 0,
  "scenes": [
    {
      "name": "Sketchfab_Scene",
      "nodes": [
        0
      ]
    }
  ],
  "textures": [
    {
      "sampler": 0,
      "source": 0
    }
  ]
}
